<svg width="207" height="85" viewBox="0 0 207 85" fill="none" xmlns="http://www.w3.org/2000/svg">
<path d="M0.546875 34V24.6484L3.35938 24.1094V10.8203L0.546875 10.2812V1H20.2812V10.2812L17.4688 10.8203V14.6875H28.7422V10.8203L25.9297 10.2812V0.882812H45.6641V10.2812L42.8516 10.8203V24.1094L45.6641 24.6484V34H25.9297V24.6484L28.7422 24.1094V20.1953H17.4688V24.1094L20.2812 24.6484V34H0.546875Z" fill="#FF0000"/>
<path d="M59.0234 34V24.6953L61.8359 23.9922L52.1562 10.75L48.5938 10.2344V1H67.4141V10.2344L65.2109 10.75L69.6875 17.5234L74.1406 10.75L71.9375 10.2344V1H90.7344V10.2344L87.1953 10.75L77.5156 23.9922L80.3516 24.6953V34H59.0234ZM93.6875 34V24.6484L96.5 24.1094V10.7734L93.6875 10.2344V1H112.883C115.211 1 117.422 1.10156 119.516 1.30469C121.609 1.49219 123.469 1.91406 125.094 2.57031C126.719 3.22656 128 4.22656 128.938 5.57031C129.875 6.91406 130.344 8.73438 130.344 11.0312C130.344 13.4531 129.789 15.3594 128.68 16.75C127.57 18.125 126.07 19.1406 124.18 19.7969C122.305 20.4375 120.188 20.8438 117.828 21.0156C115.484 21.1875 113.078 21.2734 110.609 21.2734V24.1094L113.422 24.6484V34H93.6875ZM110.609 15.3438C112.453 15.3438 113.852 15.0547 114.805 14.4766C115.773 13.8984 116.258 12.6797 116.258 10.8203C116.258 9.03906 115.758 7.89844 114.758 7.39844C113.758 6.88281 112.375 6.625 110.609 6.625V15.3438ZM132.406 34V24.6484L135.219 24.1094V10.8203L132.406 10.2812V1H161.375V13H158.164C157.117 12.2188 155.836 11.5938 154.32 11.125C152.805 10.6562 151.141 10.4219 149.328 10.4219V15.5078L155.82 14.125V20.8047L149.328 19.3984V24.5781C151.156 24.5781 152.828 24.3516 154.344 23.8984C155.875 23.4453 157.148 22.8125 158.164 22H161.375V34H132.406ZM164.703 34V24.6484L167.516 24.1094V10.7734L164.703 10.2344V1H183.898C185.93 1 187.906 1.07031 189.828 1.21094C191.75 1.35156 193.508 1.66406 195.102 2.14844C196.695 2.63281 198.016 3.36719 199.062 4.35156C200.125 5.33594 200.805 6.67188 201.102 8.35938C201.258 9.23438 201.336 10.1953 201.336 11.2422C201.336 13.0078 201.047 14.4375 200.469 15.5312C199.906 16.625 199.125 17.5078 198.125 18.1797C197.125 18.8516 195.961 19.4453 194.633 19.9609C195.414 21.5078 196.453 23.0234 197.75 24.5078C199.047 25.9766 200.242 27.3359 201.336 28.5859V34H187.32C186.367 32.2188 185.438 30.3594 184.531 28.4219C183.641 26.4688 182.93 24.3828 182.398 22.1641H181.625V34H164.703ZM181.625 15.8125C183.422 15.8125 184.812 15.5547 185.797 15.0391C186.781 14.5234 187.273 13.3672 187.273 11.5703C187.273 9.77344 186.773 8.60938 185.773 8.07812C184.789 7.54688 183.406 7.28125 181.625 7.28125V15.8125ZM0.125 84V73.8281L3.82812 73.2422V58.7578L0.125 58.1719V48H22.5312V58.1719L18.8281 58.7578V73.2422L22.5312 73.8281V84H0.125ZM25.2031 84V74.6484L28.0156 74.1094V60.7734L25.2031 60.2344V51H42.125L53.3984 68.7891V60.8203L50.5859 60.2344V51H64.6719V60.2344L61.8594 60.7734V74.1094L64.6719 74.6484V84H47.75L36.4766 66.6797V74.1094L39.3125 74.625V84H25.2031ZM79.6484 84.0234L70.8828 60.75L67.5312 60.2344V51H88.1094V60.2344L85.6953 60.75L89.4922 73.5L93.3125 60.75L90.875 60.2344V51H107.914V60.2344L104.586 60.75L95.8203 84.0234H79.6484ZM110.844 84V74.6484L113.656 74.1094V60.8203L110.844 60.2812V51H139.812V63H136.602C135.555 62.2188 134.273 61.5938 132.758 61.125C131.242 60.6562 129.578 60.4219 127.766 60.4219V65.5078L134.258 64.125V70.8047L127.766 69.3984V74.5781C129.594 74.5781 131.266 74.3516 132.781 73.8984C134.312 73.4453 135.586 72.8125 136.602 72H139.812V84H110.844ZM156.758 84.4219C153.945 84.4219 151.477 84.2344 149.352 83.8594C147.242 83.4844 145.305 82.8516 143.539 81.9609V73.8281H150.172C150.688 74.6406 151.336 75.3438 152.117 75.9375C152.914 76.5312 153.883 76.8281 155.023 76.8281C156.133 76.8281 156.875 76.4766 157.25 75.7734C157.641 75.0703 157.836 74.125 157.836 72.9375C155.898 72.7656 154.016 72.4766 152.188 72.0703C150.359 71.6641 148.719 71.0547 147.266 70.2422C145.828 69.4297 144.68 68.3359 143.82 66.9609C142.977 65.5859 142.555 63.8438 142.555 61.7344C142.555 58.8281 143.195 56.5312 144.477 54.8438C145.773 53.1406 147.547 51.9297 149.797 51.2109C152.062 50.4766 154.633 50.1094 157.508 50.1094C160.242 50.1094 162.68 50.3594 164.82 50.8594C166.977 51.3438 168.953 52 170.75 52.8281V61.0312H163.648C163.211 60.1875 162.641 59.4375 161.938 58.7812C161.234 58.125 160.344 57.7969 159.266 57.7969C158.125 57.7969 157.352 58.2188 156.945 59.0625C156.539 59.9062 156.336 60.9375 156.336 62.1562C158.539 62.2344 160.586 62.4609 162.477 62.8359C164.367 63.1953 166.023 63.7969 167.445 64.6406C168.867 65.4688 169.969 66.6094 170.75 68.0625C171.547 69.5156 171.945 71.3672 171.945 73.6172C171.945 76.4453 171.273 78.6406 169.93 80.2031C168.586 81.7656 166.766 82.8594 164.469 83.4844C162.188 84.1094 159.617 84.4219 156.758 84.4219ZM180.383 84V74.6484L183.195 74.1094V59.7188C182.43 59.7188 181.656 59.8438 180.875 60.0938C180.109 60.3438 179.469 60.7109 178.953 61.1953C178.438 61.6797 178.18 62.2812 178.18 63H174.266V51H206.234V63H202.32C202.32 62.2812 202.055 61.6797 201.523 61.1953C201.008 60.7109 200.367 60.3438 199.602 60.0938C198.836 59.8438 198.07 59.7188 197.305 59.7188V74.1094L200.117 74.6484V84H180.383Z" fill="white"/>
</svg>
