<svg xmlns="http://www.w3.org/2000/svg" width="93" height="92" fill="none"><rect width="92" height="92" x=".333" fill="#fff" rx="24"/><path fill="url(#a)" d="M55.565 51.696c2.352 0 4.678.588 6.726 1.701.372.2.713.44 1.062.67 3.361-6.58 5.135-13.54 5.135-20.328 0-.382 0-.776-.012-1.17a1.244 1.244 0 00-.973-1.156c-7.433-1.625-14.166-5.65-19.458-11.631l-.788-.899a1.2 1.2 0 00-.923-.418c-.381-.05-.677.135-.91.394l-1.207 1.33c-5.021 5.525-11.347 9.34-18.289 11.04l-.8.196a1.21 1.21 0 00-.935 1.157C23.75 49.886 33.965 62.33 38.37 66.883a42 42 0 003.788 3.449 14.2 14.2 0 01-.748-4.482c0-7.805 6.35-14.154 14.154-14.154"/><path fill="url(#b)" d="M61.116 55.56a11.65 11.65 0 00-5.551-1.404c-6.45 0-11.692 5.243-11.692 11.693 0 2.178.59 4.307 1.723 6.129 2.154 3.483 5.87 5.563 9.969 5.563 6.437 0 11.692-5.243 11.692-11.692 0-4.308-2.35-8.247-6.141-10.29m.437 8.732l-9.145 7.116-3.122-4.883a1.23 1.23 0 112.074-1.326l1.667 2.608 7.014-5.458a1.23 1.23 0 111.512 1.943"/><defs><linearGradient id="a" x1="46.333" x2="46.333" y1="18.457" y2="70.332" gradientUnits="userSpaceOnUse"><stop stop-color="#EF8080"/><stop offset="1" stop-color="#F0145A"/></linearGradient><linearGradient id="b" x1="55.565" x2="55.565" y1="54.156" y2="77.541" gradientUnits="userSpaceOnUse"><stop stop-color="#EF8080"/><stop offset="1" stop-color="#F0145A"/></linearGradient></defs></svg>