<svg xmlns="http://www.w3.org/2000/svg" width="92" height="92" fill="none"><rect width="92" height="92" fill="#fff" rx="24"/><path fill="#000" d="M56.006 70h-19v6h19z"/><path fill="url(#a)" d="M56.006 70h-19v6h19z"/><path fill="#000" d="M29.173 16.452L15.738 29.887l3.535 3.535 13.435-13.435z"/><path fill="url(#b)" d="M29.173 16.452L15.738 29.887l3.535 3.535 13.435-13.435z"/><path fill="#000" d="M63.113 16.32l-3.536 3.535 13.435 13.436 3.536-3.536z"/><path fill="url(#c)" d="M63.113 16.32l-3.536 3.535 13.435 13.436 3.536-3.536z"/><path fill="#000" d="M58.556 23.708l-2.69-.114a5.06 5.06 0 00-4.284 1.432l-5.504 5.505-5.754-5.754a3.84 3.84 0 00-3.858-.909 3.62 3.62 0 01-3.61-.903L32 22.11 21.395 32.718l1.727 1.727-.113 2.692a5.06 5.06 0 001.431 4.283l9.613 9.612a4.99 4.99 0 011.69-3.259l-2.995-2.995.707-.707 3.129 3.129a5 5 0 011.422-.54v-3.695l-1.722-1.722.707-.707 1.015 1.015V36.2a3.61 3.61 0 013.142-3.625 3.5 3.5 0 01.991.045l-1.23-1.23.708-.707 1.796 1.796a3.54 3.54 0 013.404-1.908 3.6 3.6 0 013.174 3.332 3.56 3.56 0 011.825-.332 3.62 3.62 0 013.19 3.663v3.424a5 5 0 013.816 3.625l2.788-2.788.708.707-3.316 3.315.004.04v3.32a3.96 3.96 0 002.379-1.128l6.84-6.84a3.84 3.84 0 00.909-3.858 3.62 3.62 0 01.903-3.611l.854-.854L60.284 21.98z"/><path fill="url(#d)" d="M58.556 23.708l-2.69-.114a5.06 5.06 0 00-4.284 1.432l-5.504 5.505-5.754-5.754a3.84 3.84 0 00-3.858-.909 3.62 3.62 0 01-3.61-.903L32 22.11 21.395 32.718l1.727 1.727-.113 2.692a5.06 5.06 0 001.431 4.283l9.613 9.612a4.99 4.99 0 011.69-3.259l-2.995-2.995.707-.707 3.129 3.129a5 5 0 011.422-.54v-3.695l-1.722-1.722.707-.707 1.015 1.015V36.2a3.61 3.61 0 013.142-3.625 3.5 3.5 0 01.991.045l-1.23-1.23.708-.707 1.796 1.796a3.54 3.54 0 013.404-1.908 3.6 3.6 0 013.174 3.332 3.56 3.56 0 011.825-.332 3.62 3.62 0 013.19 3.663v3.424a5 5 0 013.816 3.625l2.788-2.788.708.707-3.316 3.315.004.04v3.32a3.96 3.96 0 002.379-1.128l6.84-6.84a3.84 3.84 0 00.909-3.858 3.62 3.62 0 01.903-3.611l.854-.854L60.284 21.98z"/><path fill="#000" d="M43.88 35.69a2.49 2.49 0 00-2.725-2.188 2.6 2.6 0 00-2.243 2.63v11.357a4 4 0 00-4 4v9.673a3.84 3.84 0 002.086 3.37 3.62 3.62 0 011.914 3.193v1.207h15V66.49l1.984-1.823a5.06 5.06 0 002.016-4.04V45.488a4 4 0 00-4-4v-4.323a2.62 2.62 0 00-2.276-2.668 2.49 2.49 0 00-2.682 2.1h.458V52.04h-1V36.597h.5v-2.431a2.62 2.62 0 00-2.276-2.668 2.5 2.5 0 00-2.724 2.49v1.702h.5v15.444h-1V35.69zm-4.568 20.35h-1v-8h1zm14.1-14.241h1v10.443h-1z"/><path fill="url(#e)" d="M43.88 35.69a2.49 2.49 0 00-2.725-2.188 2.6 2.6 0 00-2.243 2.63v11.357a4 4 0 00-4 4v9.673a3.84 3.84 0 002.086 3.37 3.62 3.62 0 011.914 3.193v1.207h15V66.49l1.984-1.823a5.06 5.06 0 002.016-4.04V45.488a4 4 0 00-4-4v-4.323a2.62 2.62 0 00-2.276-2.668 2.49 2.49 0 00-2.682 2.1h.458V52.04h-1V36.597h.5v-2.431a2.62 2.62 0 00-2.276-2.668 2.5 2.5 0 00-2.724 2.49v1.702h.5v15.444h-1V35.69zm-4.568 20.35h-1v-8h1zm14.1-14.241h1v10.443h-1z"/><defs><linearGradient id="a" x1="46.506" x2="46.506" y1="70" y2="76" gradientUnits="userSpaceOnUse"><stop stop-color="#EF8080"/><stop offset="1" stop-color="#F0145A"/></linearGradient><linearGradient id="b" x1="22.455" x2="25.991" y1="23.169" y2="26.705" gradientUnits="userSpaceOnUse"><stop stop-color="#EF8080"/><stop offset="1" stop-color="#F0145A"/></linearGradient><linearGradient id="c" x1="61.345" x2="74.78" y1="18.088" y2="31.523" gradientUnits="userSpaceOnUse"><stop stop-color="#EF8080"/><stop offset="1" stop-color="#F0145A"/></linearGradient><linearGradient id="d" x1="46.143" x2="46.143" y1="21.98" y2="51.032" gradientUnits="userSpaceOnUse"><stop stop-color="#EF8080"/><stop offset="1" stop-color="#F0145A"/></linearGradient><linearGradient id="e" x1="46.412" x2="46.412" y1="31.488" y2="68.932" gradientUnits="userSpaceOnUse"><stop stop-color="#EF8080"/><stop offset="1" stop-color="#F0145A"/></linearGradient></defs></svg>