<svg xmlns="http://www.w3.org/2000/svg" width="93" height="92" fill="none"><rect width="92" height="92" x=".667" fill="#fff" rx="24"/><path fill="url(#a)" d="M55.019 34.389a1.87 1.87 0 002.65 0l2.608-2.608a1.88 1.88 0 000-2.651l-6.583-6.581a1.87 1.87 0 00-2.648 0l-2.61 2.608a1.875 1.875 0 000 2.648z"/><path fill="url(#b)" d="M39.433 50.265a1.876 1.876 0 002.648 0l2.609-2.61a1.87 1.87 0 000-2.649l-6.583-6.583a1.874 1.874 0 00-2.65 0l-2.607 2.608a1.875 1.875 0 000 2.65z"/><path fill="url(#c)" d="M69.315 50.891l-2.647-2.65a1.875 1.875 0 00-2.648 0l-1.161 1.16-11.205-11.207 2.427-2.428-6.733-6.73-2.428 2.427-3.092 3.09-2.374 2.374 6.732 6.733 2.377-2.373 11.203 11.205-1.048 1.05a1.87 1.87 0 000 2.647l2.647 2.648a1.87 1.87 0 002.65 0l5.299-5.297a1.87 1.87 0 000-2.649"/><path fill="url(#d)" d="M49.744 58.943a2.173 2.173 0 00-2.173-2.173H30.603c-1.2 0-2.173.973-2.173 2.172v3.527h-4.763v7.39h30.558v-7.39h-4.481z"/><defs><linearGradient id="a" x1="54.357" x2="54.357" y1="22" y2="34.939" gradientUnits="userSpaceOnUse"><stop stop-color="#EF8080"/><stop offset="1" stop-color="#F0145A"/></linearGradient><linearGradient id="b" x1="38.77" x2="38.77" y1="37.875" y2="50.812" gradientUnits="userSpaceOnUse"><stop stop-color="#EF8080"/><stop offset="1" stop-color="#F0145A"/></linearGradient><linearGradient id="c" x1="54.659" x2="54.659" y1="29.035" y2="59.388" gradientUnits="userSpaceOnUse"><stop stop-color="#EF8080"/><stop offset="1" stop-color="#F0145A"/></linearGradient><linearGradient id="d" x1="38.946" x2="38.946" y1="56.77" y2="69.859" gradientUnits="userSpaceOnUse"><stop stop-color="#EF8080"/><stop offset="1" stop-color="#F0145A"/></linearGradient></defs></svg>