<svg xmlns="http://www.w3.org/2000/svg" width="93" height="92" fill="none"><rect width="92" height="92" x=".333" fill="#fff" rx="24"/><path fill="url(#a)" fill-rule="evenodd" d="M67.785 49.078v17.295c0 3.094-2.425 5.629-5.388 5.629H30.304c-2.964 0-5.388-2.535-5.388-5.629V49.078h16.666v7.51l4.768 3.134 4.769-3.133v-7.51z" clip-rule="evenodd"/><path fill="url(#b)" fill-rule="evenodd" d="M43.252 49.078v6.609l3.098 2.035 3.098-2.035v-6.609z" clip-rule="evenodd"/><path fill="url(#c)" fill-rule="evenodd" d="M26.407 29.145h39.886c1.883 0 3.421 1.708 3.421 3.795v10.253c0 2.088-1.538 3.796-3.42 3.796H26.406c-1.883 0-3.42-1.708-3.42-3.796V32.94c0-2.087 1.538-3.795 3.42-3.795" clip-rule="evenodd"/><path fill="url(#d)" fill-rule="evenodd" d="M38.046 19.953h16.609a2.814 2.814 0 012.806 2.806v4.378h-3.557V24.55c0-.698-.57-1.27-1.268-1.27H40.065c-.698 0-1.268.572-1.268 1.27v2.587H35.24v-4.378a2.814 2.814 0 012.805-2.806" clip-rule="evenodd"/><defs><linearGradient id="a" x1="46.35" x2="46.35" y1="49.078" y2="72.002" gradientUnits="userSpaceOnUse"><stop stop-color="#EF8080"/><stop offset="1" stop-color="#F0145A"/></linearGradient><linearGradient id="b" x1="46.35" x2="46.35" y1="49.078" y2="57.722" gradientUnits="userSpaceOnUse"><stop stop-color="#EF8080"/><stop offset="1" stop-color="#F0145A"/></linearGradient><linearGradient id="c" x1="46.35" x2="46.35" y1="29.145" y2="46.989" gradientUnits="userSpaceOnUse"><stop stop-color="#EF8080"/><stop offset="1" stop-color="#F0145A"/></linearGradient><linearGradient id="d" x1="46.35" x2="46.35" y1="19.953" y2="27.137" gradientUnits="userSpaceOnUse"><stop stop-color="#EF8080"/><stop offset="1" stop-color="#F0145A"/></linearGradient></defs></svg>