<svg xmlns="http://www.w3.org/2000/svg" width="92" height="92" fill="none"><rect width="92" height="92" fill="#fff" rx="24"/><path fill="url(#a)" d="M37.734 42.125a2 2 0 002-2v-7.8A6.33 6.33 0 0146.058 26a6.333 6.333 0 016.325 6.325v7.8a2 2 0 004 0v-7.8C56.383 26.632 51.752 22 46.058 22c-5.692 0-10.324 4.632-10.324 10.325v7.8a2 2 0 002 2"/><path fill="url(#b)" d="M69 37.633H58.384v2.494c0 2.206-1.794 4-4 4s-4-1.794-4-4v-2.494h-8.649v2.494c0 2.206-1.794 4-4 4s-4-1.794-4-4v-2.494H23c-.552 0-.893.435-.762.97l6.998 28.498C29.658 68.703 31.344 70 33 70h26c1.658 0 3.342-1.298 3.766-2.9l6.996-28.497c.131-.537-.209-.971-.762-.971"/><path fill="#fff" d="M42.6 48.4a1.4 1.4 0 112.8 0v6.95V54a1.4 1.4 0 112.8 0v1.676c.013-.762.635-2.376 1.4-2.376a1.4 1.4 0 011.4 1.4s.041 1.041.133 1.103C51.357 55.33 51.84 54 52.4 54a1.4 1.4 0 011.4 1.4v7a2.8 2.8 0 01-2.8 2.8h-4.68a5.6 5.6 0 01-3.96-1.64l-2.21-2.21L37 59.94c.005-1.337 1.053-1.74 2.1-1.74.902 0 1.714.14 3.5 1.05z"/><defs><linearGradient id="a" x1="46.058" x2="46.058" y1="22" y2="42.125" gradientUnits="userSpaceOnUse"><stop stop-color="#EF8080"/><stop offset="1" stop-color="#F0145A"/></linearGradient><linearGradient id="b" x1="46" x2="46" y1="37.633" y2="70.002" gradientUnits="userSpaceOnUse"><stop stop-color="#EF8080"/><stop offset="1" stop-color="#F0145A"/></linearGradient></defs></svg>